<mxfile host="app.diagrams.net" modified="2022-03-24T01:48:58.128Z" agent="5.0 (Macintosh; Intel Mac OS X 10_15_7) AppleWebKit/537.36 (KHTML, like Gecko) Chrome/99.0.4844.74 Safari/537.36" etag="-XOF4sbOPidcEIoFTz8k" version="17.1.3" type="github">
  <diagram name="Page-1" id="e7e014a7-5840-1c2e-5031-d8a46d1fe8dd">
    <mxGraphModel dx="1234" dy="741" grid="0" gridSize="10" guides="1" tooltips="1" connect="1" arrows="1" fold="1" page="1" pageScale="1" pageWidth="1169" pageHeight="826" background="none" math="0" shadow="0">
      <root>
        <mxCell id="0" />
        <mxCell id="1" parent="0" />
        <mxCell id="k-PogV9iw9nHgQf0J8GU-70" value="Audit" style="swimlane;fontSize=14;strokeColor=#6c8ebf;fillColor=#dae8fc;" parent="1" vertex="1">
          <mxGeometry x="116.96000000000001" y="163" width="146" height="183" as="geometry" />
        </mxCell>
        <mxCell id="k-PogV9iw9nHgQf0J8GU-71" value="id" style="text;html=1;align=left;verticalAlign=middle;resizable=0;points=[];autosize=1;strokeColor=none;fillColor=none;fontSize=14;flipH=0;" parent="k-PogV9iw9nHgQf0J8GU-70" vertex="1">
          <mxGeometry x="10" y="25" width="30" height="20" as="geometry" />
        </mxCell>
        <mxCell id="k-PogV9iw9nHgQf0J8GU-72" value="biz_id" style="text;align=left;verticalAlign=middle;resizable=0;points=[];autosize=1;strokeColor=none;fillColor=none;fontSize=14;flipH=0;labelBackgroundColor=none;glass=0;labelPosition=center;verticalLabelPosition=middle;textDirection=ltr;html=1;spacingRight=-5;" parent="k-PogV9iw9nHgQf0J8GU-70" vertex="1">
          <mxGeometry x="11" y="66" width="42" height="21" as="geometry" />
        </mxCell>
        <mxCell id="k-PogV9iw9nHgQf0J8GU-74" value="auditor_id" style="text;html=1;align=left;verticalAlign=middle;resizable=0;points=[];autosize=1;strokeColor=none;fillColor=none;fontSize=14;flipH=0;" parent="k-PogV9iw9nHgQf0J8GU-70" vertex="1">
          <mxGeometry x="10" y="87" width="80" height="20" as="geometry" />
        </mxCell>
        <mxCell id="k-PogV9iw9nHgQf0J8GU-93" value="status" style="text;html=1;align=left;verticalAlign=middle;resizable=0;points=[];autosize=1;strokeColor=none;fillColor=none;fontSize=14;flipH=0;spacingRight=-5;" parent="k-PogV9iw9nHgQf0J8GU-70" vertex="1">
          <mxGeometry x="10" y="107" width="43" height="21" as="geometry" />
        </mxCell>
        <mxCell id="k-PogV9iw9nHgQf0J8GU-121" value="step" style="text;html=1;align=left;verticalAlign=middle;resizable=0;points=[];autosize=1;strokeColor=none;fillColor=none;fontSize=14;flipH=0;" parent="k-PogV9iw9nHgQf0J8GU-70" vertex="1">
          <mxGeometry x="10" y="128" width="37" height="21" as="geometry" />
        </mxCell>
        <mxCell id="k-PogV9iw9nHgQf0J8GU-128" value="flow_id" style="text;html=1;align=left;verticalAlign=middle;resizable=0;points=[];autosize=1;strokeColor=none;fillColor=none;fontSize=14;flipH=0;" parent="k-PogV9iw9nHgQf0J8GU-70" vertex="1">
          <mxGeometry x="10" y="153" width="54" height="21" as="geometry" />
        </mxCell>
        <mxCell id="k-PogV9iw9nHgQf0J8GU-75" value="Document" style="swimlane;fontSize=14;strokeColor=#6c8ebf;fillColor=#dae8fc;" parent="1" vertex="1">
          <mxGeometry x="345.96" y="221" width="182" height="128" as="geometry" />
        </mxCell>
        <mxCell id="k-PogV9iw9nHgQf0J8GU-76" value="id" style="text;html=1;align=left;verticalAlign=middle;resizable=0;points=[];autosize=1;strokeColor=none;fillColor=none;fontSize=14;flipH=0;" parent="k-PogV9iw9nHgQf0J8GU-75" vertex="1">
          <mxGeometry x="10" y="30" width="30" height="20" as="geometry" />
        </mxCell>
        <mxCell id="k-PogV9iw9nHgQf0J8GU-77" value="title" style="text;html=1;align=left;verticalAlign=middle;resizable=0;points=[];autosize=1;strokeColor=none;fillColor=none;fontSize=14;flipH=0;" parent="k-PogV9iw9nHgQf0J8GU-75" vertex="1">
          <mxGeometry x="10" y="50" width="40" height="20" as="geometry" />
        </mxCell>
        <mxCell id="k-PogV9iw9nHgQf0J8GU-78" value="url" style="text;html=1;align=left;verticalAlign=middle;resizable=0;points=[];autosize=1;strokeColor=none;fillColor=none;fontSize=14;flipH=0;" parent="k-PogV9iw9nHgQf0J8GU-75" vertex="1">
          <mxGeometry x="10" y="70" width="30" height="20" as="geometry" />
        </mxCell>
        <mxCell id="k-PogV9iw9nHgQf0J8GU-94" value="status" style="text;html=1;align=left;verticalAlign=middle;resizable=0;points=[];autosize=1;strokeColor=none;fillColor=none;fontSize=14;flipH=0;" parent="k-PogV9iw9nHgQf0J8GU-75" vertex="1">
          <mxGeometry x="10" y="90" width="48" height="21" as="geometry" />
        </mxCell>
        <mxCell id="k-PogV9iw9nHgQf0J8GU-80" value="BizType" style="swimlane;fontSize=14;strokeColor=#6c8ebf;fillColor=#dae8fc;" parent="1" vertex="1">
          <mxGeometry x="340.96" y="60" width="216" height="115" as="geometry" />
        </mxCell>
        <mxCell id="k-PogV9iw9nHgQf0J8GU-81" value="id" style="text;html=1;align=left;verticalAlign=middle;resizable=0;points=[];autosize=1;strokeColor=none;fillColor=none;fontSize=14;flipH=0;spacingRight=-5;" parent="k-PogV9iw9nHgQf0J8GU-80" vertex="1">
          <mxGeometry x="10" y="30" width="16" height="21" as="geometry" />
        </mxCell>
        <mxCell id="k-PogV9iw9nHgQf0J8GU-82" value="class = Document" style="text;html=1;align=left;verticalAlign=middle;resizable=0;points=[];autosize=1;strokeColor=none;fillColor=none;fontSize=14;flipH=0;spacingRight=-5;" parent="k-PogV9iw9nHgQf0J8GU-80" vertex="1">
          <mxGeometry x="10" y="50" width="117" height="21" as="geometry" />
        </mxCell>
        <mxCell id="k-PogV9iw9nHgQf0J8GU-87" value="AuditFlow" style="swimlane;fontSize=14;strokeColor=#6c8ebf;fillColor=#dae8fc;" parent="1" vertex="1">
          <mxGeometry x="116.96000000000001" y="361" width="147" height="170" as="geometry" />
        </mxCell>
        <mxCell id="k-PogV9iw9nHgQf0J8GU-88" value="id" style="text;html=1;align=left;verticalAlign=middle;resizable=0;points=[];autosize=1;strokeColor=none;fillColor=none;fontSize=14;flipH=0;" parent="k-PogV9iw9nHgQf0J8GU-87" vertex="1">
          <mxGeometry x="10" y="30" width="30" height="20" as="geometry" />
        </mxCell>
        <mxCell id="k-PogV9iw9nHgQf0J8GU-89" value="audit_id" style="text;html=1;align=left;verticalAlign=middle;resizable=0;points=[];autosize=1;strokeColor=none;fillColor=none;fontSize=14;flipH=0;labelBackgroundColor=none;spacingRight=-5;" parent="k-PogV9iw9nHgQf0J8GU-87" vertex="1">
          <mxGeometry x="10" y="139" width="54" height="21" as="geometry" />
        </mxCell>
        <mxCell id="k-PogV9iw9nHgQf0J8GU-90" value="user_id" style="text;html=1;align=left;verticalAlign=middle;resizable=0;points=[];autosize=1;strokeColor=none;fillColor=none;fontSize=14;flipH=0;spacingRight=-5;" parent="k-PogV9iw9nHgQf0J8GU-87" vertex="1">
          <mxGeometry x="8.5" y="57" width="51" height="21" as="geometry" />
        </mxCell>
        <mxCell id="k-PogV9iw9nHgQf0J8GU-91" value="status" style="text;html=1;align=left;verticalAlign=middle;resizable=0;points=[];autosize=1;strokeColor=none;fillColor=none;fontSize=14;flipH=0;" parent="k-PogV9iw9nHgQf0J8GU-87" vertex="1">
          <mxGeometry x="8.5" y="84" width="48" height="21" as="geometry" />
        </mxCell>
        <mxCell id="k-PogV9iw9nHgQf0J8GU-120" value="step" style="text;html=1;align=left;verticalAlign=middle;resizable=0;points=[];autosize=1;strokeColor=none;fillColor=none;fontSize=14;flipH=0;spacingRight=-5;" parent="k-PogV9iw9nHgQf0J8GU-87" vertex="1">
          <mxGeometry x="10" y="112" width="32" height="21" as="geometry" />
        </mxCell>
        <mxCell id="k-PogV9iw9nHgQf0J8GU-92" style="edgeStyle=orthogonalEdgeStyle;rounded=0;orthogonalLoop=1;jettySize=auto;html=1;fontSize=14;entryX=0.036;entryY=0.456;entryDx=0;entryDy=0;entryPerimeter=0;exitX=0.003;exitY=0.556;exitDx=0;exitDy=0;exitPerimeter=0;" parent="1" source="k-PogV9iw9nHgQf0J8GU-89" target="k-PogV9iw9nHgQf0J8GU-71" edge="1">
          <mxGeometry relative="1" as="geometry">
            <mxPoint x="78.96000000000001" y="197" as="targetPoint" />
            <Array as="points">
              <mxPoint x="72.96000000000001" y="512" />
              <mxPoint x="72.96000000000001" y="197" />
            </Array>
          </mxGeometry>
        </mxCell>
        <mxCell id="k-PogV9iw9nHgQf0J8GU-97" value="RegularFlow" style="swimlane;fontSize=14;strokeColor=#6c8ebf;fillColor=#dae8fc;" parent="1" vertex="1">
          <mxGeometry x="644.96" y="173" width="148" height="125" as="geometry" />
        </mxCell>
        <mxCell id="k-PogV9iw9nHgQf0J8GU-98" value="id" style="text;html=1;align=left;verticalAlign=middle;resizable=0;points=[];autosize=1;strokeColor=none;fillColor=none;fontSize=14;flipH=0;spacingRight=-5;" parent="k-PogV9iw9nHgQf0J8GU-97" vertex="1">
          <mxGeometry x="10" y="30" width="16" height="21" as="geometry" />
        </mxCell>
        <mxCell id="k-PogV9iw9nHgQf0J8GU-99" value="biz_type_id" style="text;html=1;align=left;verticalAlign=middle;resizable=0;points=[];autosize=1;strokeColor=none;fillColor=none;fontSize=14;flipH=0;" parent="k-PogV9iw9nHgQf0J8GU-97" vertex="1">
          <mxGeometry x="10" y="50" width="81" height="21" as="geometry" />
        </mxCell>
        <mxCell id="k-PogV9iw9nHgQf0J8GU-100" value="title" style="text;html=1;align=left;verticalAlign=middle;resizable=0;points=[];autosize=1;strokeColor=none;fillColor=none;fontSize=14;flipH=0;" parent="k-PogV9iw9nHgQf0J8GU-97" vertex="1">
          <mxGeometry x="10" y="70" width="32" height="21" as="geometry" />
        </mxCell>
        <mxCell id="k-PogV9iw9nHgQf0J8GU-101" value="is_active" style="text;html=1;align=left;verticalAlign=middle;resizable=0;points=[];autosize=1;strokeColor=none;fillColor=none;fontSize=14;flipH=0;" parent="k-PogV9iw9nHgQf0J8GU-97" vertex="1">
          <mxGeometry x="10" y="90" width="65" height="21" as="geometry" />
        </mxCell>
        <mxCell id="k-PogV9iw9nHgQf0J8GU-116" style="edgeStyle=orthogonalEdgeStyle;rounded=0;jumpStyle=gap;orthogonalLoop=1;jettySize=auto;html=1;entryX=0.967;entryY=0.3;entryDx=0;entryDy=0;entryPerimeter=0;fontSize=14;exitX=1.009;exitY=0.565;exitDx=0;exitDy=0;exitPerimeter=0;" parent="k-PogV9iw9nHgQf0J8GU-97" source="k-PogV9iw9nHgQf0J8GU-104" edge="1">
          <mxGeometry relative="1" as="geometry">
            <mxPoint x="64.53" y="253.22943396226424" as="sourcePoint" />
            <mxPoint x="26.00199999999998" y="41.01999999999995" as="targetPoint" />
            <Array as="points">
              <mxPoint x="197" y="250" />
              <mxPoint x="197" y="41" />
            </Array>
          </mxGeometry>
        </mxCell>
        <mxCell id="k-PogV9iw9nHgQf0J8GU-102" value="RegularFlowStep" style="swimlane;fontSize=14;strokeColor=#6c8ebf;fillColor=#dae8fc;" parent="1" vertex="1">
          <mxGeometry x="644.96" y="361" width="148" height="125" as="geometry" />
        </mxCell>
        <mxCell id="k-PogV9iw9nHgQf0J8GU-103" value="id" style="text;html=1;align=left;verticalAlign=middle;resizable=0;points=[];autosize=1;strokeColor=none;fillColor=none;fontSize=14;flipH=0;" parent="k-PogV9iw9nHgQf0J8GU-102" vertex="1">
          <mxGeometry x="10" y="30" width="30" height="20" as="geometry" />
        </mxCell>
        <mxCell id="k-PogV9iw9nHgQf0J8GU-104" value="flow_id" style="text;html=1;align=left;verticalAlign=middle;resizable=0;points=[];autosize=1;strokeColor=none;fillColor=none;fontSize=14;flipH=0;spacingRight=-5;" parent="k-PogV9iw9nHgQf0J8GU-102" vertex="1">
          <mxGeometry x="10" y="50" width="49" height="21" as="geometry" />
        </mxCell>
        <mxCell id="k-PogV9iw9nHgQf0J8GU-106" value="user_id_list" style="text;html=1;align=left;verticalAlign=middle;resizable=0;points=[];autosize=1;strokeColor=none;fillColor=none;fontSize=14;flipH=0;" parent="k-PogV9iw9nHgQf0J8GU-102" vertex="1">
          <mxGeometry x="10" y="73" width="81" height="21" as="geometry" />
        </mxCell>
        <mxCell id="k-PogV9iw9nHgQf0J8GU-105" value="step" style="text;html=1;align=left;verticalAlign=middle;resizable=0;points=[];autosize=1;strokeColor=none;fillColor=none;fontSize=14;flipH=0;" parent="k-PogV9iw9nHgQf0J8GU-102" vertex="1">
          <mxGeometry x="10" y="96" width="37" height="21" as="geometry" />
        </mxCell>
        <mxCell id="k-PogV9iw9nHgQf0J8GU-107" value="AuditRegularFlowStep" style="swimlane;fontSize=14;strokeColor=#6c8ebf;fillColor=#dae8fc;" parent="1" vertex="1">
          <mxGeometry x="334.96" y="486" width="233" height="151" as="geometry" />
        </mxCell>
        <mxCell id="k-PogV9iw9nHgQf0J8GU-108" value="id" style="text;html=1;align=left;verticalAlign=middle;resizable=0;points=[];autosize=1;strokeColor=none;fillColor=none;fontSize=14;flipH=0;" parent="k-PogV9iw9nHgQf0J8GU-107" vertex="1">
          <mxGeometry x="10" y="30" width="30" height="20" as="geometry" />
        </mxCell>
        <mxCell id="k-PogV9iw9nHgQf0J8GU-109" value="flow_id" style="text;html=1;align=left;verticalAlign=middle;resizable=0;points=[];autosize=1;strokeColor=none;fillColor=none;fontSize=14;flipH=0;spacingRight=-5;" parent="k-PogV9iw9nHgQf0J8GU-107" vertex="1">
          <mxGeometry x="10" y="52" width="49" height="21" as="geometry" />
        </mxCell>
        <mxCell id="k-PogV9iw9nHgQf0J8GU-111" value="user_id_list" style="text;html=1;align=left;verticalAlign=middle;resizable=0;points=[];autosize=1;strokeColor=none;fillColor=none;fontSize=14;flipH=0;spacingRight=-5;" parent="k-PogV9iw9nHgQf0J8GU-107" vertex="1">
          <mxGeometry x="10" y="74" width="76" height="21" as="geometry" />
        </mxCell>
        <mxCell id="k-PogV9iw9nHgQf0J8GU-112" value="audit_id" style="text;html=1;align=left;verticalAlign=middle;resizable=0;points=[];autosize=1;strokeColor=none;fillColor=none;fontSize=14;flipH=0;" parent="k-PogV9iw9nHgQf0J8GU-107" vertex="1">
          <mxGeometry x="10" y="119" width="59" height="21" as="geometry" />
        </mxCell>
        <mxCell id="k-PogV9iw9nHgQf0J8GU-110" value="step" style="text;html=1;align=left;verticalAlign=middle;resizable=0;points=[];autosize=1;strokeColor=none;fillColor=none;fontSize=14;flipH=0;spacingRight=-5;" parent="k-PogV9iw9nHgQf0J8GU-107" vertex="1">
          <mxGeometry x="10" y="97" width="32" height="21" as="geometry" />
        </mxCell>
        <mxCell id="k-PogV9iw9nHgQf0J8GU-118" style="edgeStyle=orthogonalEdgeStyle;rounded=0;jumpStyle=gap;orthogonalLoop=1;jettySize=auto;html=1;fontSize=14;endArrow=none;endFill=0;" parent="1" edge="1">
          <mxGeometry relative="1" as="geometry">
            <mxPoint x="344.96" y="614.4909090909091" as="sourcePoint" />
            <mxPoint x="74" y="197" as="targetPoint" />
            <Array as="points">
              <mxPoint x="287" y="614" />
              <mxPoint x="48" y="615" />
              <mxPoint x="48" y="198" />
            </Array>
          </mxGeometry>
        </mxCell>
        <mxCell id="k-PogV9iw9nHgQf0J8GU-123" style="edgeStyle=orthogonalEdgeStyle;rounded=0;jumpStyle=gap;orthogonalLoop=1;jettySize=auto;html=1;entryX=-0.012;entryY=0.568;entryDx=0;entryDy=0;entryPerimeter=0;fontSize=14;exitX=-0.009;exitY=0.588;exitDx=0;exitDy=0;exitPerimeter=0;" parent="1" source="k-PogV9iw9nHgQf0J8GU-120" target="k-PogV9iw9nHgQf0J8GU-121" edge="1">
          <mxGeometry relative="1" as="geometry">
            <Array as="points">
              <mxPoint x="89" y="485" />
              <mxPoint x="89" y="303" />
            </Array>
          </mxGeometry>
        </mxCell>
        <mxCell id="k-PogV9iw9nHgQf0J8GU-124" style="edgeStyle=orthogonalEdgeStyle;rounded=0;jumpStyle=gap;orthogonalLoop=1;jettySize=auto;html=1;entryX=0.972;entryY=0.533;entryDx=0;entryDy=0;entryPerimeter=0;fontSize=14;exitX=0.002;exitY=0.539;exitDx=0;exitDy=0;exitPerimeter=0;dashed=1;endArrow=none;endFill=0;startArrow=classic;startFill=1;" parent="1" source="k-PogV9iw9nHgQf0J8GU-110" target="k-PogV9iw9nHgQf0J8GU-120" edge="1">
          <mxGeometry relative="1" as="geometry">
            <Array as="points">
              <mxPoint x="295" y="594" />
              <mxPoint x="295" y="484" />
            </Array>
          </mxGeometry>
        </mxCell>
        <mxCell id="k-PogV9iw9nHgQf0J8GU-125" style="edgeStyle=orthogonalEdgeStyle;rounded=0;jumpStyle=gap;orthogonalLoop=1;jettySize=auto;html=1;entryX=0.994;entryY=0.511;entryDx=0;entryDy=0;entryPerimeter=0;fontSize=14;startArrow=classic;exitX=0;exitY=0.586;exitDx=0;exitDy=0;exitPerimeter=0;dashed=1;endArrow=none;endFill=0;startFill=1;" parent="1" source="k-PogV9iw9nHgQf0J8GU-111" target="k-PogV9iw9nHgQf0J8GU-90" edge="1">
          <mxGeometry relative="1" as="geometry">
            <mxPoint x="345.96" y="568" as="sourcePoint" />
            <Array as="points">
              <mxPoint x="317.96" y="572" />
              <mxPoint x="317.96" y="429" />
            </Array>
          </mxGeometry>
        </mxCell>
        <mxCell id="k-PogV9iw9nHgQf0J8GU-133" style="edgeStyle=orthogonalEdgeStyle;rounded=0;jumpStyle=gap;orthogonalLoop=1;jettySize=auto;html=1;entryX=-0.027;entryY=0.521;entryDx=0;entryDy=0;entryPerimeter=0;fontSize=14;" parent="1" source="k-PogV9iw9nHgQf0J8GU-73" target="k-PogV9iw9nHgQf0J8GU-81" edge="1">
          <mxGeometry relative="1" as="geometry">
            <Array as="points">
              <mxPoint x="300" y="219" />
              <mxPoint x="300" y="101" />
            </Array>
          </mxGeometry>
        </mxCell>
        <mxCell id="k-PogV9iw9nHgQf0J8GU-73" value="biz_type_id" style="text;html=1;align=left;verticalAlign=middle;resizable=0;points=[];autosize=1;strokeColor=none;fillColor=none;fontSize=14;flipH=0;spacingRight=-5;" parent="1" vertex="1">
          <mxGeometry x="127.96000000000001" y="208" width="76" height="21" as="geometry" />
        </mxCell>
        <mxCell id="k-PogV9iw9nHgQf0J8GU-134" style="edgeStyle=orthogonalEdgeStyle;rounded=0;jumpStyle=gap;orthogonalLoop=1;jettySize=auto;html=1;entryX=-0.032;entryY=0.489;entryDx=0;entryDy=0;entryPerimeter=0;fontSize=14;" parent="1" source="k-PogV9iw9nHgQf0J8GU-72" target="k-PogV9iw9nHgQf0J8GU-76" edge="1">
          <mxGeometry relative="1" as="geometry">
            <Array as="points">
              <mxPoint x="303" y="240" />
              <mxPoint x="303" y="261" />
            </Array>
          </mxGeometry>
        </mxCell>
        <mxCell id="k-PogV9iw9nHgQf0J8GU-135" style="edgeStyle=orthogonalEdgeStyle;rounded=0;jumpStyle=gap;orthogonalLoop=1;jettySize=auto;html=1;entryX=-0.011;entryY=0.563;entryDx=0;entryDy=0;entryPerimeter=0;fontSize=14;" parent="1" source="k-PogV9iw9nHgQf0J8GU-93" target="k-PogV9iw9nHgQf0J8GU-94" edge="1">
          <mxGeometry relative="1" as="geometry">
            <Array as="points">
              <mxPoint x="303" y="281" />
              <mxPoint x="303" y="323" />
            </Array>
          </mxGeometry>
        </mxCell>
        <mxCell id="k-PogV9iw9nHgQf0J8GU-137" style="edgeStyle=orthogonalEdgeStyle;rounded=0;jumpStyle=gap;orthogonalLoop=1;jettySize=auto;html=1;entryX=0.028;entryY=0.537;entryDx=0;entryDy=0;entryPerimeter=0;fontSize=14;dashed=1;" parent="1" source="k-PogV9iw9nHgQf0J8GU-128" target="k-PogV9iw9nHgQf0J8GU-98" edge="1">
          <mxGeometry relative="1" as="geometry">
            <Array as="points">
              <mxPoint x="284" y="327" />
              <mxPoint x="284" y="366" />
              <mxPoint x="593" y="366" />
              <mxPoint x="593" y="214" />
            </Array>
          </mxGeometry>
        </mxCell>
        <mxCell id="k-PogV9iw9nHgQf0J8GU-138" style="edgeStyle=orthogonalEdgeStyle;rounded=0;jumpStyle=gap;orthogonalLoop=1;jettySize=auto;html=1;entryX=0.56;entryY=-0.004;entryDx=0;entryDy=0;entryPerimeter=0;fontSize=14;exitX=-0.002;exitY=0.548;exitDx=0;exitDy=0;exitPerimeter=0;" parent="1" source="k-PogV9iw9nHgQf0J8GU-82" target="k-PogV9iw9nHgQf0J8GU-75" edge="1">
          <mxGeometry relative="1" as="geometry">
            <Array as="points">
              <mxPoint x="324" y="122" />
              <mxPoint x="324" y="187" />
              <mxPoint x="448" y="187" />
            </Array>
          </mxGeometry>
        </mxCell>
        <mxCell id="k-PogV9iw9nHgQf0J8GU-142" style="edgeStyle=orthogonalEdgeStyle;rounded=0;jumpStyle=gap;orthogonalLoop=1;jettySize=auto;html=1;entryX=1.047;entryY=0.499;entryDx=0;entryDy=0;entryPerimeter=0;fontSize=14;fillColor=#f8cecc;strokeColor=#b85450;" parent="1" source="k-PogV9iw9nHgQf0J8GU-99" target="k-PogV9iw9nHgQf0J8GU-81" edge="1">
          <mxGeometry relative="1" as="geometry">
            <Array as="points">
              <mxPoint x="611.96" y="234" />
              <mxPoint x="611.96" y="100" />
            </Array>
          </mxGeometry>
        </mxCell>
        <mxCell id="k-PogV9iw9nHgQf0J8GU-143" style="edgeStyle=orthogonalEdgeStyle;rounded=0;jumpStyle=gap;orthogonalLoop=1;jettySize=auto;html=1;entryX=0.006;entryY=0.491;entryDx=0;entryDy=0;entryPerimeter=0;fontSize=14;" parent="1" source="k-PogV9iw9nHgQf0J8GU-109" target="k-PogV9iw9nHgQf0J8GU-104" edge="1">
          <mxGeometry relative="1" as="geometry">
            <Array as="points">
              <mxPoint x="589.96" y="549" />
              <mxPoint x="589.96" y="421" />
            </Array>
          </mxGeometry>
        </mxCell>
        <mxCell id="k-PogV9iw9nHgQf0J8GU-144" style="edgeStyle=orthogonalEdgeStyle;rounded=0;jumpStyle=gap;orthogonalLoop=1;jettySize=auto;html=1;entryX=-0.012;entryY=0.512;entryDx=0;entryDy=0;entryPerimeter=0;fontSize=14;" parent="1" source="k-PogV9iw9nHgQf0J8GU-111" target="k-PogV9iw9nHgQf0J8GU-106" edge="1">
          <mxGeometry relative="1" as="geometry">
            <Array as="points">
              <mxPoint x="609.96" y="571" />
              <mxPoint x="609.96" y="445" />
            </Array>
          </mxGeometry>
        </mxCell>
        <mxCell id="k-PogV9iw9nHgQf0J8GU-145" style="edgeStyle=orthogonalEdgeStyle;rounded=0;jumpStyle=gap;orthogonalLoop=1;jettySize=auto;html=1;entryX=-0.027;entryY=0.536;entryDx=0;entryDy=0;entryPerimeter=0;fontSize=14;" parent="1" source="k-PogV9iw9nHgQf0J8GU-110" target="k-PogV9iw9nHgQf0J8GU-105" edge="1">
          <mxGeometry relative="1" as="geometry">
            <Array as="points">
              <mxPoint x="625.96" y="594" />
              <mxPoint x="625.96" y="468" />
            </Array>
          </mxGeometry>
        </mxCell>
      </root>
    </mxGraphModel>
  </diagram>
</mxfile>
